<svg class="icon" viewBox="0 0 1024 1024" xmlns="http://www.w3.org/2000/svg" width="128" height="128"><defs><style/></defs><path d="M987.884 957.068c0-193.531-115.537-360.057-281.387-434.425 60.607-53.734 98.82-132.166 98.82-219.535C805.317 141.114 673.994 9.791 512 9.791S218.683 141.114 218.683 303.109c0 87.37 38.212 165.8 98.82 219.535C151.652 597.012 36.115 763.537 36.115 957.068c0 1.877.014 3.752.035 5.625v56.188h951.734v-56.188h-.035c.022-1.873.035-3.748.035-5.625zM270.876 303.109C270.876 169.94 378.831 61.986 512 61.986S753.124 169.94 753.124 303.109 645.169 544.232 512 544.232 270.876 436.277 270.876 303.11zM99.941 962.693a428.87 428.87 0 01-.04-5.625c0-182.09 118.107-336.575 281.887-391.08 39.236 19.472 83.44 30.438 130.212 30.438 46.772 0 90.976-10.966 130.212-30.438 163.779 54.505 281.886 208.99 281.886 391.08 0 1.877-.015 3.752-.04 5.625H99.94z"/></svg>