<?xml version="1.0" standalone="no"?><!DOCTYPE svg PUBLIC "-//W3C//DTD SVG 1.1//EN" "http://www.w3.org/Graphics/SVG/1.1/DTD/svg11.dtd"><svg t="1625737484382" class="icon" viewBox="0 0 1024 1024" version="1.1" xmlns="http://www.w3.org/2000/svg" p-id="8674" xmlns:xlink="http://www.w3.org/1999/xlink" width="128" height="128"><defs><style type="text/css"></style></defs><path d="M895.957765 1024H128.042235a106.654935 106.654935 0 0 1-106.654934-106.654935v-170.647895A149.316908 149.316908 0 0 1 170.704209 597.380262h186.006206a285.408605 285.408605 0 0 0-52.900847-116.467189A329.777058 329.777058 0 0 1 234.69717 277.415458 269.623675 269.623675 0 0 1 512 0.112628a269.623675 269.623675 0 0 1 277.30283 277.30283 329.777058 329.777058 0 0 1-69.112398 203.497615A285.408605 285.408605 0 0 0 667.289585 597.380262H853.295791a149.316908 149.316908 0 0 1 149.316908 149.316908v170.647895A106.654935 106.654935 0 0 1 895.957765 1024zM149.373222 896.014078h725.253556v-149.316908a21.330987 21.330987 0 0 0-21.330987-21.330987h-233.360997a85.323948 85.323948 0 0 1-61.859862-26.450424 85.323948 85.323948 0 0 1-23.464086-62.286482 395.049878 395.049878 0 0 1 79.351272-226.535081A210.323531 210.323531 0 0 0 661.316908 277.415458 142.490993 142.490993 0 0 0 512 128.098549a142.064373 142.064373 0 0 0-149.316908 149.316909 210.323531 210.323531 0 0 0 47.35479 132.678738 395.049878 395.049878 0 0 1 79.351272 226.535081 85.323948 85.323948 0 0 1-23.464086 62.286482 85.323948 85.323948 0 0 1-61.859862 26.450424H170.704209a21.330987 21.330987 0 0 0-21.330987 21.330987z" p-id="8675"></path></svg>