<?xml version="1.0" standalone="no"?><!DOCTYPE svg PUBLIC "-//W3C//DTD SVG 1.1//EN" "http://www.w3.org/Graphics/SVG/1.1/DTD/svg11.dtd"><svg t="1620971342021" class="icon" viewBox="0 0 1024 1024" version="1.1" xmlns="http://www.w3.org/2000/svg" p-id="7404" xmlns:xlink="http://www.w3.org/1999/xlink" width="128" height="128"><defs><style type="text/css"></style></defs><path d="M632.256 61.568c0 30.144-24.448 54.592-54.592 54.592h-198.4a54.592 54.592 0 0 1-54.592-54.592v-7.04c0-30.08 24.448-54.528 54.592-54.528h198.4c30.08 0 54.528 24.384 54.592 54.528v7.04zM271.04 336.64h418.624a38.528 38.528 0 0 0 37.824-39.296 38.592 38.592 0 0 0-37.76-39.296H270.976a38.592 38.592 0 0 0-37.824 39.296c0 21.696 16.96 39.296 37.824 39.296zM413.312 742.4c0-5.248 0.192-10.496 0.448-15.744h-142.72a38.592 38.592 0 0 0-37.76 39.296c0 21.696 16.896 39.232 37.76 39.232h148.608a315.264 315.264 0 0 1-6.336-62.784zM536.96 492.8H271.04a38.592 38.592 0 0 0-37.824 39.168c0 21.76 16.96 39.296 37.824 39.296h193.024c19.648-30.08 44.224-56.704 72.832-78.528z m213.44-11.84a267.84 267.84 0 1 0 0 535.68 267.84 267.84 0 0 0 0-535.68z m176.128 257.92c0 5.504-4.48 9.92-9.92 9.92h-143.936v59.52h143.936c5.44 0 9.856 4.48 9.856 9.92v32.896a9.92 9.92 0 0 1-9.856 9.92h-143.936v61.376c0 3.584-4.672 6.528-10.56 6.528h-34.944c-5.824 0-10.496-2.944-10.496-6.528v-61.44h-132.48a9.92 9.92 0 0 1-9.856-9.856v-32.896c0-5.44 4.416-9.92 9.92-9.92h132.416v-59.52h-132.48a9.92 9.92 0 0 1-9.856-9.92v-32.832c0-5.504 4.416-9.92 9.92-9.92h91.712l-51.2-78.848c-6.016-9.152-1.152-22.976 10.88-30.72l3.392-2.24c11.968-7.808 26.56-6.656 32.576 2.496l71.04 109.312h1.024l73.984-113.92c6.016-9.152 20.608-10.24 32.64-2.496l3.328 2.24c12.032 7.808 16.896 21.568 10.88 30.72l-54.208 83.456h106.24c5.504 0 9.92 4.48 9.92 9.92v32.896zM149.696 921.728a69.44 69.44 0 0 1-69.44-69.376V187.072A69.376 69.376 0 0 1 149.696 117.76h39.68v-1.024c1.6 0.256 3.072 0.512 4.608 0.512a39.232 39.232 0 0 0 0-78.4c-1.536 0-3.008 0.256-4.544 0.448V38.784h-30.72A158.272 158.272 0 0 0 0 196.608v646.144a158.336 158.336 0 0 0 158.72 157.888h361.984a341.76 341.76 0 0 1-63.04-78.912H149.76zM803.648 38.784h-32.192v0.512c-1.6-0.192-3.136-0.512-4.736-0.512a39.232 39.232 0 0 0 0 78.464c1.6 0 3.2-0.32 4.736-0.512v0.96h41.28c38.336 0 69.376 31.04 69.44 69.376v249.728c28.736 11.904 55.744 27.648 80.256 46.848V196.672a158.272 158.272 0 0 0-158.72-157.888z" p-id="7405"></path></svg>