<svg class="icon" viewBox="0 0 1024 1024" xmlns="http://www.w3.org/2000/svg" width="128" height="128"><defs><style/></defs><path d="M991.934 918.396h-31.655V572.198c0-18.61-9.527-43.63-32.278-52.891L640.394 335.879V48.54l-3.116-6.411c-13-31.299-41.583-47.015-76.755-40.782l-451.09 130.982c-25.644 9.26-44.7 34.281-44.7 62.33v723.738H32.502A31.744 31.744 0 00.223 949.872c0 19.144 13 31.477 32.278 31.477h959.433c19.634 0 32.278-12.733 32.278-31.477-.178-19.144-13.223-31.476-32.278-31.476zM895.946 568.77v349.626H640.394V407.29l255.552 161.48zM127.91 194.658L575.437 63.72v854.675H127.91V194.658z"/><path d="M449.086 341.355H247.494c-20.658 0-33.925 12.021-33.925 30.675 0 18.7 13.668 30.72 33.925 30.72h201.592c20.658 0 33.97-12.02 33.97-30.72 0-18.877-13.935-30.72-33.97-30.72zm0 182.092H247.494c-20.658 0-33.925 12.377-33.925 30.675v.357c0 18.699 13.668 30.72 33.925 30.72h201.592c20.658 0 33.97-12.422 33.97-30.72v-.357c0-18.698-13.935-30.72-33.97-30.72zm0 182.805H247.494c-20.658 0-33.925 12.02-33.925 30.72v.356c0 18.698 13.668 30.675 33.925 30.675h201.592c20.658 0 33.97-12.021 33.97-30.72v-.356c0-18.655-13.935-30.675-33.97-30.675zm269.31 31.076c0 18.698 13.712 30.675 33.925 30.675h67.271c20.658 0 33.97-12.021 33.97-30.72v-.356c0-18.655-13.713-30.675-33.97-30.675h-67.227c-20.702 0-33.97 12.02-33.97 30.72v.356z"/></svg>