<svg class="icon" viewBox="0 0 1024 1024" xmlns="http://www.w3.org/2000/svg" width="128" height="128"><defs><style/></defs><path d="M968.704 1024H55.296C24.576 1024 0 998.4 0 967.168V56.832C0 25.6 24.576 0 55.296 0s55.296 25.6 55.296 56.832v853.504h857.6c30.72 0 55.296 25.6 55.296 56.832C1024 998.4 998.912 1024 968.704 1024m-97.28-170.496h-53.76c-30.72 0-55.296-25.6-55.296-56.832v-458.24c0-31.232 24.576-56.832 55.296-56.832h53.76c30.72 0 55.296 25.6 55.296 56.832v458.24c0 31.232-24.576 56.832-55.296 56.832m-282.624 0h-53.76c-30.72 0-55.296-25.6-55.296-56.832V140.8c0-31.232 24.576-56.832 55.296-56.832h53.76c30.72 0 55.296 25.6 55.296 56.832v655.872c0 31.232-24.576 56.832-55.296 56.832m-276.992 0h-53.76c-30.72 0-55.296-25.6-55.296-56.832V502.784c0-31.744 25.088-57.344 55.296-57.344h53.76c30.72 0 55.296 25.6 55.296 56.832V796.16c0 31.744-24.576 57.344-55.296 57.344"/></svg>