<svg class="icon" viewBox="0 0 1280 1024" xmlns="http://www.w3.org/2000/svg" width="160" height="128"><defs><style/></defs><path d="M1152 1024H128C57.28 1024 0 966.72 0 896V128C0 57.28 57.28 0 128 0h1024c70.656 0 128 57.28 128 128v768c0 70.72-57.344 128-128 128zm64-896c0-35.328-28.672-64-64-64H128c-35.328 0-64 28.672-64 64v768c0 35.328 28.672 64 64 64h1024c35.328 0 64-28.672 64-64V128z"/><path d="M0 384h1280v64H0v-64zm1146.88 245.888l-115.2 183.488c-10.624 16.896-34.112 22.72-52.48 12.928-18.368-9.728-24.64-31.36-14.08-48.192l115.2-183.488c10.624-16.896 34.112-22.72 52.48-12.928 18.368 9.728 24.64 31.36 14.08 48.192zm-307.2 183.488c-10.624 16.896-34.112 22.72-52.48 12.928-18.368-9.728-24.64-31.36-14.08-48.192l115.2-183.488c10.624-16.896 34.112-22.72 52.48-12.928 18.368 9.728 24.64 31.36 14.08 48.192l-115.2 183.488zm-192 0c-10.624 16.896-34.112 22.72-52.48 12.928-18.368-9.728-24.64-31.36-14.08-48.192l115.2-183.488c10.624-16.896 34.112-22.72 52.48-12.928 18.368 9.728 24.64 31.36 14.08 48.192l-115.2 183.488z"/></svg>