<svg class="icon" viewBox="0 0 1080 1024" xmlns="http://www.w3.org/2000/svg" width="135" height="128"><defs><style/></defs><path d="M160.996 326.827l3.3 11.833a28.48 28.48 0 001.364 5.12c41.245 113.436 114.176 222.72 219.193 327.68 105.302 105.358 212.31 175.843 321.195 212.195a29.127 29.127 0 004.153 1.081l11.605 3.356a142.222 142.222 0 10-81.35-175.957 56.889 56.889 0 01-86.984 28.786 1004.43 1004.43 0 01-128.398-109.625 1030.713 1030.713 0 01-115.485-136.078 56.889 56.889 0 0128.559-86.642 142.222 142.222 0 10-177.152-81.75zM111.957 92.729a256 256 0 11330.354 388.95c19.172 23.153 40.22 46.193 63.26 69.176 20.651 20.65 41.188 39.652 61.668 56.889a256 256 0 11116.85 387.812 143.19 143.19 0 01-14.052-3.926C543.232 949.305 421.49 869.092 304.412 752.014 188.188 635.79 105.984 512.626 58.71 382.634a142.962 142.962 0 01-5.347-18.659A256 256 0 01111.957 92.73z"/></svg>