<?xml version="1.0" standalone="no"?><!DOCTYPE svg PUBLIC "-//W3C//DTD SVG 1.1//EN" "http://www.w3.org/Graphics/SVG/1.1/DTD/svg11.dtd"><svg t="1605967240498" class="icon" viewBox="0 0 1081 1024" version="1.1" xmlns="http://www.w3.org/2000/svg" p-id="8500" xmlns:xlink="http://www.w3.org/1999/xlink" width="135.125" height="128"><defs><style type="text/css"></style></defs><path d="M1011.409836 0H69.945355a69.945355 69.945355 0 0 0-69.945355 69.945355v149.68306a69.945355 69.945355 0 0 0 69.945355 69.945355h941.464481a69.945355 69.945355 0 0 0 69.945355-69.945355V69.945355a69.945355 69.945355 0 0 0-69.945355-69.945355zM155.628415 205.989071A61.202186 61.202186 0 1 1 216.830601 144.786885a61.202186 61.202186 0 0 1-61.202186 61.202186zM1011.409836 367.213115H69.945355a69.945355 69.945355 0 0 0-69.945355 69.945355v149.68306a69.945355 69.945355 0 0 0 69.945355 69.945355h941.464481a69.945355 69.945355 0 0 0 69.945355-69.945355V437.15847a69.945355 69.945355 0 0 0-69.945355-69.945355zM155.628415 573.202186a61.202186 61.202186 0 1 1 61.202186-61.202186 61.202186 61.202186 0 0 1-61.202186 61.202186zM1011.409836 734.42623H69.945355a69.945355 69.945355 0 0 0-69.945355 69.945355v149.68306a69.945355 69.945355 0 0 0 69.945355 69.945355h941.464481a69.945355 69.945355 0 0 0 69.945355-69.945355V804.371585a69.945355 69.945355 0 0 0-69.945355-69.945355zM155.628415 940.415301a61.202186 61.202186 0 1 1 61.202186-61.202186 61.202186 61.202186 0 0 1-61.202186 61.202186z" p-id="8501" fill="#bfbfbf"></path></svg>