<svg class="icon" width="128" height="128" viewBox="0 0 1024 1024" xmlns="http://www.w3.org/2000/svg"><path d="M946.025 670.931c-6.374 52.042-30.579 74.504-122.383 80.105 5.01-47.714-1.42-96.399-18.98-141.867-22.905-59.309-59.276-113.945-108.613-147.607 22.398-12.555 46.697-20.062 71.888-20.062 56.187 0 105.599 37.331 140.116 84.757 30.357 41.71 44.252 93.398 37.972 144.674zM767.5 425.5c-53.019 0-96-42.981-96-96s42.981-96 96-96 96 42.981 96 96-42.981 96-96 96zm9.647 340.827c-11.182 91.069-59.184 121.171-265.23 121.171-189.971 0-240.257-18.143-261-104.175-21.418-88.833 2.632-182.261 62.281-251.411 52.551-60.922 122.93-106.411 198.719-106.411 83.68 0 157.272 55.456 208.678 125.909 45.211 61.961 65.905 138.745 56.552 214.917zM511.5 393.5c-70.692 0-128-57.308-128-128s57.308-128 128-128 128 57.308 128 128-57.308 128-128 128zm-256 32c-53.019 0-96-42.981-96-96s42.981-96 96-96 96 42.981 96 96-42.981 96-96 96zm71.258 36.116c-43.755 29.569-78.595 75.161-103.057 125.805-24.877 51.505-33.795 108.594-26.258 163.788-80.212-4.352-105.251-21.009-116.753-68.837-14.381-59.799 1.767-122.691 41.818-169.24 35.285-41.01 82.541-71.632 133.429-71.632 25.22 0 49.067 7.538 70.821 20.116z"/></svg>