<svg class="icon" viewBox="0 0 1024 1024" xmlns="http://www.w3.org/2000/svg" width="128" height="128"><defs><style/></defs><path d="M913.417 148.082v.006C795.67 93.39 579.543.758 516.27.546c-63.146.24-280.209 93.155-398.518 148.02-24.826 11.504-41.167 37.75-40.62 65.278 1.996 99.907 15.264 246.505 67.224 377.53 112.604 283.952 310.18 417.141 365.584 431.124 1.955.476 3.948.718 5.95.718 2.09 0 4.182-.236 6.205-.816 63.431-16.748 258.287-164.53 364.271-430.938 51.945-130.526 65.33-277.827 67.398-378.433.49-24.396-18.373-54.74-40.347-64.947zm-72.262 425.376l-.003-.008c-98.76 248.195-276.05 379.758-325.486 399.828-51.7-19.413-223.965-142.503-326.02-399.877-49.27-124.23-61.897-264.614-63.812-360.498-.184-9.37 6.087-17.222 12.425-20.142C314.35 111.117 476.952 49.42 516.285 49.259c39.503.147 201.409 61.614 376.579 143.012 4.421 2.301 12.332 14.367 12.22 19.81-1.972 96.56-14.697 237.637-63.929 361.377zM545.401 462.103l-17.825 23.917c64.935 41.17 121.177 79.005 168.721 113.502l21.743-30.441c-20.874-13.623-46.965-30.15-78.276-49.574a9455.124 9455.124 0 0182.188-33.487l-22.175-30.006c-30.44 16.524-60.157 31.746-89.145 45.664a27276.168 27276.168 0 00-65.23-39.575zm-45.223 133.504c28.12-13.621 55.948-25.657 83.492-36.092-1.164-11.017-1.887-22.47-2.174-34.356-33.341 14.497-61.608 26.237-84.797 35.226V446.88h153.067v11.308h32.616v-198.3H463.649v288.754c0 11.6-4.206 21.455-12.61 29.572l24.788 32.616c8.116-5.8 16.232-10.874 24.351-15.223zM496.7 289.46h153.067v49.574H496.699V289.46zm0 78.275h153.067v49.575H496.699v-49.575zM480.61 625.18c-41.746-1.162-71.608-15.799-89.58-43.92V395.565H305.8v32.182h51.747v146.551c-11.6 10.727-30.15 28.414-55.66 53.055l17.828 36.095c22.901-27.833 40.294-47.26 52.184-58.273 20.292 33.05 54.788 50.009 103.492 50.879 80.593 1.74 163.07 2.319 247.43 1.74 4.928-13.339 8.987-24.788 12.177-34.356-87.261 2.316-172.058 2.9-254.387 1.74zm-63.488-293.54c-25.804-36.817-46.095-64.215-60.879-82.19l-27.832 18.698c15.076 20.007 34.355 48.417 57.838 85.235l30.873-21.742z"/></svg>