<svg class="icon" viewBox="0 0 1024 1024" xmlns="http://www.w3.org/2000/svg" width="128" height="128"><defs><style/></defs><path d="M823.467 648.533c8.533-25.6 12.8-55.466 12.8-85.333 0-115.2-59.734-213.333-149.334-268.8-21.333 72.533-89.6 123.733-170.666 123.733s-145.067-51.2-166.4-123.733C256 345.6 196.267 448 196.267 563.2c0 29.867 4.266 59.733 12.8 89.6 4.266-4.267 8.533-4.267 17.066-4.267 98.134 0 174.934 76.8 174.934 174.934 0 12.8 0 25.6-4.267 38.4 38.4 12.8 76.8 21.333 119.467 21.333 42.666 0 81.066-8.533 119.466-25.6-4.266-8.533-4.266-21.333-4.266-34.133 0-98.134 76.8-174.934 174.933-174.934h17.067zm55.466 12.8c59.734 29.867 102.4 89.6 102.4 157.867 0 98.133-76.8 174.933-174.933 174.933-64 0-119.467-34.133-149.333-85.333-42.667 17.067-89.6 25.6-140.8 25.6-51.2 0-98.134-8.533-140.8-29.867-29.867 51.2-85.334 85.334-149.334 85.334-98.133 0-174.933-76.8-174.933-174.934 0-68.266 42.667-128 98.133-157.866-8.533-29.867-12.8-68.267-12.8-102.4 0-145.067 81.067-273.067 200.534-332.8C345.6 132.267 422.4 59.733 512 59.733s166.4 72.534 174.933 162.134c119.467 64 200.534 187.733 200.534 332.8 4.266 42.666 0 76.8-8.534 106.666zM516.267 358.4c64 0 115.2-51.2 115.2-115.2s-51.2-115.2-115.2-115.2-115.2 46.933-115.2 110.933 51.2 119.467 115.2 119.467zM226.133 938.667c64 0 115.2-51.2 115.2-115.2s-51.2-115.2-115.2-115.2-115.2 51.2-115.2 115.2 51.2 115.2 115.2 115.2zm580.267 0c64 0 115.2-51.2 115.2-115.2s-51.2-115.2-115.2-115.2-115.2 51.2-115.2 115.2 51.2 115.2 115.2 115.2zm0 0"/></svg>