<?xml version="1.0" standalone="no"?><!DOCTYPE svg PUBLIC "-//W3C//DTD SVG 1.1//EN" "http://www.w3.org/Graphics/SVG/1.1/DTD/svg11.dtd"><svg t="1625737851287" class="icon" viewBox="0 0 1024 1024" version="1.1" xmlns="http://www.w3.org/2000/svg" p-id="14606" xmlns:xlink="http://www.w3.org/1999/xlink" width="128" height="128"><defs><style type="text/css"></style></defs><path d="M966.386368 524.785536 57.613632 524.785536c-31.759687 0-57.598272-25.838585-57.598272-57.598272l0-153.595392c0-31.759687 25.838585-57.598272 57.598272-57.598272l908.772737 0c31.759687 0 57.598272 25.838585 57.598272 57.598272l0 153.595392C1023.98464 498.946952 998.146056 524.785536 966.386368 524.785536zM57.613632 294.392448c-10.586562 0-19.199424 8.612862-19.199424 19.199424l0 153.595392c0 10.586562 8.612862 19.199424 19.199424 19.199424l908.772737 0c10.586562 0 19.199424-8.612862 19.199424-19.199424l0-153.595392c0-10.586562-8.612862-19.199424-19.199424-19.199424L57.613632 294.392448z" p-id="14607"></path><path d="M908.788096 1023.970561 115.211904 1023.970561c-31.759687 0-57.598272-25.838585-57.598272-57.598272l0-479.9856 908.772737 0 0 479.9856C966.386368 998.131976 940.547784 1023.970561 908.788096 1023.970561zM96.01248 524.785536l0 441.586752c0 10.586562 8.612862 19.199424 19.199424 19.199424l793.576193 0c10.586562 0 19.199424-8.612862 19.199424-19.199424l0-441.586752L96.01248 524.785536z" p-id="14608"></path><path d="M511.877124 273.865704c-5.700949 0-11.212464-2.544564-14.911553-7.106347-4.764017-5.873744-5.634391-13.99638-2.227133-20.745618 1.191644-2.360249 29.65543-58.476326 70.726838-116.599382C622.908673 48.120156 675.502295 4.799856 721.783147 0.65534c4.851054-0.435187 9.67011-0.65534 14.32405-0.65534 23.637051 0 44.111317 5.451356 60.853214 16.200474 16.155675 10.372809 27.763647 25.178125 33.572113 42.814716 12.67546 38.492285-4.309631 81.959781-43.271662 110.739718-66.179135 48.880454-262.148936 101.261602-270.458446 103.468256C515.171745 273.65579 513.518034 273.865704 511.877124 273.865704zM736.108477 38.400128c-3.516055 0-7.181865 0.168955-10.900153 0.501745-33.510675 3.00151-79.01587 42.891513-128.135676 112.32303-18.412248 26.025459-34.384888 52.025319-46.221973 72.424067 61.66087-18.225373 171.105267-53.392318 213.597432-84.778257 25.385478-18.750157 37.01009-45.381039 29.614472-67.843085C787.33382 50.596882 765.67047 38.400128 736.108477 38.400128z" p-id="14609"></path><path d="M512.122876 273.865704c-1.639631 0-3.293341-0.209914-4.926572-0.642541-8.309511-2.206654-204.279312-54.586522-270.458446-103.468256-38.960751-28.778657-55.947122-72.246153-43.271662-110.739718 5.807186-17.636591 17.415158-32.441907 33.572113-42.814716 16.741898-10.749118 37.216164-16.200474 60.853214-16.200474 4.65522 0 9.472996 0.220153 14.32405 0.65534 46.280852 4.143236 98.874474 47.464816 156.31915 128.760297 41.071408 58.123056 69.535194 114.239133 70.726838 116.599382 3.407258 6.749238 2.535604 14.871874-2.227133 20.745618C523.33534 271.32114 517.823825 273.865704 512.122876 273.865704zM287.891523 38.400128c-29.561993 0-51.225343 12.196754-57.952821 32.626221-7.395618 22.462046 4.228993 49.091647 29.614472 67.843085 42.517764 31.403858 151.948082 66.561843 213.598712 84.780817-11.835805-20.400028-27.812286-46.401168-46.223253-72.426627-49.119806-69.431517-94.626281-109.32152-128.135676-112.32303C295.073388 38.567803 291.407578 38.400128 287.891523 38.400128z" p-id="14610"></path><path d="M512 1023.971841c-10.603202 0-19.199424-8.596222-19.199424-19.199424l0-734.083577c0-10.601922 8.596222-19.199424 19.199424-19.199424s19.199424 8.597502 19.199424 19.199424l0 734.083577C531.199424 1015.375619 522.603202 1023.971841 512 1023.971841z" p-id="14611"></path></svg>