<svg class="icon" width="128" height="128" viewBox="0 0 1024 1024" xmlns="http://www.w3.org/2000/svg"><path d="M699.328 622.912C931.072 637.76 960 788.992 960 841.152V896H810.688v-54.848c0-78.208-36.096-160.384-111.36-218.24zM586.688 508.16A271.936 271.936 0 00661.248 320a271.936 271.936 0 00-74.688-188.16c12.096-2.56 24.576-3.84 37.376-3.84 103.04 0 186.688 85.952 186.688 192S727.04 512 624 512c-12.8 0-25.28-1.28-37.376-3.84zM400 512c-103.04 0-186.688-85.952-186.688-192S296.96 128 400 128c103.04 0 186.688 85.952 186.688 192S503.04 512 400 512zm0 109.696c266.688 0 336 142.656 336 197.504V896H64v-54.848c0-54.848 69.312-219.456 336-219.456z"/></svg>