<svg class="icon" width="128" height="128" viewBox="0 0 1024 1024" xmlns="http://www.w3.org/2000/svg"><path d="M512 1024A512 512 0 11512 0a512 512 0 010 1024zm0-113.778a398.222 398.222 0 100-796.444 398.222 398.222 0 000 796.444zm126.862-609.849c29.184 25.43 43.634 60.473 43.634 104.107 0 35.67-9.444 65.422-27.648 88.747-6.542 8.021-27.022 27.022-61.099 56.775a122.539 122.539 0 00-30.663 37.888c-7.964 14.506-11.605 30.606-11.605 48.128v12.288h-77.938v-12.288c0-27.022 4.267-50.29 14.45-69.12 9.5-20.366 37.148-50.29 82.261-90.34l12.345-13.824c13.198-16.782 20.366-34.133 20.366-53.134 0-25.486-7.338-45.17-21.162-59.676-14.507-14.507-35.613-21.846-61.895-21.846-32.825 0-56.776 10.24-71.34 31.346-13.084 17.522-19.626 42.325-19.626 74.297h-76.515c0-53.191 15.36-94.663 45.852-125.27 30.89-31.402 73.16-46.705 126.976-46.705 46.649 0 84.423 12.288 113.607 38.627zm-126.634 387.3c15.36 0 28.33 4.323 38.684 14.507 10.126 9.5 15.246 21.845 15.246 37.148 0 15.36-5.802 27.648-15.986 37.774a54.443 54.443 0 01-37.83 14.564 52.11 52.11 0 01-37.832-15.36 50.745 50.745 0 01-15.36-37.092c0-15.36 5.177-27.648 15.36-37.148 9.956-10.07 23.097-14.45 37.718-14.45z"/></svg>