<svg class="icon" width="128" height="128" viewBox="0 0 1024 1024" xmlns="http://www.w3.org/2000/svg"><path d="M0 0v239.69h1024V0H0zm183.15 171.886H72.485V67.803H183.15v104.083zm164.425 0H236.983V67.803h110.665v104.083zm164.498 0H401.335V67.803H512v104.083zM0 392.192v239.69h1024v-239.69H0zm183.15 171.74H72.485V460.068H183.15V563.93zm164.425 0H236.983V460.068h110.665V563.93zm164.498 0H401.335V460.068H512V563.93zM0 784.31V1024h1024V784.31H0zm183.15 171.886H72.485V852.114H183.15v104.01zm164.425 0H236.983V852.114h110.665v104.01zm164.498 0H401.335V852.114H512v104.01z"/></svg>