<svg class="icon" viewBox="0 0 1024 1024" xmlns="http://www.w3.org/2000/svg" width="128" height="128"><defs><style/></defs><path d="M171.366 184.73c-1.484-10.496 3.584-23.655 15.207-39.424 11.622-15.77 27.955-23.655 48.998-23.655h658.79c6.759 0 12.033-3.584 15.77-10.7s5.632-14.439 5.632-21.965c0-6.759-2.457-13.722-7.321-20.839-4.864-7.117-10.701-10.7-17.46-10.7H233.267c-34.56 0-64 12.39-88.422 37.17s-36.608 54.785-36.608 90.113v681.318c0 34.56 12.185 64.358 36.608 89.549 24.422 25.139 53.504 37.734 87.296 37.734h683.571V270.285H235.52c-20.992 0-36.966-8.807-47.872-26.47-10.854-17.613-16.333-37.325-16.282-59.085zm680.141 744.345H235.52c-21.043 0-36.966-5.273-47.872-15.77s-16.333-26.265-16.333-47.308v-552.96c10.496 7.526 20.275 12.953 29.287 16.333 9.01 3.379 20.633 5.068 34.918 5.068h615.987v594.637zm42.803-764.62H235.52c-6.758 0-12.032 3.583-15.77 10.7s-5.632 14.08-5.632 20.839c0 6.758 1.895 13.721 5.632 20.838 3.738 7.117 9.012 10.7 15.77 10.7h658.79c6.759 0 12.032-3.737 15.77-11.263 3.738-7.527 5.632-14.643 5.632-21.402 0-6.758-1.894-13.517-5.632-20.275-3.738-6.758-9.011-10.138-15.77-10.138zM214.118 471.91c0 9.012 3.175 16.538 9.575 22.528 6.4 5.99 13.721 9.012 21.965 9.012h148.684c9.012 0 16.692-3.021 23.092-9.012s9.574-13.516 9.574-22.528c0-9.01-3.174-16.537-9.574-22.528-6.4-5.99-13.722-9.01-21.965-9.01H245.658c-8.244 0-15.565 3.02-21.965 9.01-6.349 5.99-9.575 13.517-9.575 22.528zm0 148.634c0 9.011 3.175 16.691 9.575 23.091s13.721 9.575 21.965 9.575h318.72c9.01 0 16.69-3.175 23.09-9.575s9.575-14.08 9.575-23.091c0-8.243-3.174-15.565-9.574-21.965s-13.722-9.574-21.965-9.574H245.658c-8.244 0-15.565 3.174-21.965 9.574-6.349 6.4-9.575 13.722-9.575 21.965zm0 148.634c0 9.01 3.175 16.69 9.575 23.09s13.721 9.575 21.965 9.575h447.078c8.243 0 15.565-3.174 21.965-9.574s9.574-13.722 9.574-21.965c0-9.011-3.174-16.691-9.574-23.091s-13.722-9.575-21.965-9.575H245.658c-8.244 0-15.565 3.175-21.965 9.575-6.349 6.4-9.575 13.721-9.575 21.965z"/></svg>