<?xml version="1.0" standalone="no"?><!DOCTYPE svg PUBLIC "-//W3C//DTD SVG 1.1//EN" "http://www.w3.org/Graphics/SVG/1.1/DTD/svg11.dtd"><svg t="1625737962690" class="icon" viewBox="0 0 1024 1024" version="1.1" xmlns="http://www.w3.org/2000/svg" p-id="16242" xmlns:xlink="http://www.w3.org/1999/xlink" width="128" height="128"><defs><style type="text/css"></style></defs><path d="M508.18345 320.172268a106.211803 106.211803 0 1 1-0.27926 212.423606 106.211803 106.211803 0 0 1 0.27926-212.423606m0-63.997032a170.813899 170.813899 0 1 0 0.558519 341.67434 170.813899 170.813899 0 0 0-0.558519-341.67434z" p-id="16243"></path><path d="M801.266589 124.318076a407.579649 407.579649 0 0 0-586.119735 0 431.270187 431.270187 0 0 0 0 599.570747L508.18345 1024l293.083139-300.111177a431.270187 431.270187 0 0 0 0-599.524204z m-44.169589 557.355977l-248.91355 255.988132-248.913551-255.988132a365.364879 365.364879 0 0 1 0-508.718232 346.794103 346.794103 0 0 1 497.827101 0 365.364879 365.364879 0 0 1 0 508.718232z" p-id="16244"></path></svg>