<?xml version="1.0" standalone="no"?><!DOCTYPE svg PUBLIC "-//W3C//DTD SVG 1.1//EN" "http://www.w3.org/Graphics/SVG/1.1/DTD/svg11.dtd"><svg t="1605967526359" class="icon" viewBox="0 0 1024 1024" version="1.1" xmlns="http://www.w3.org/2000/svg" p-id="16391" xmlns:xlink="http://www.w3.org/1999/xlink" width="128" height="128"><defs><style type="text/css"></style></defs><path d="M588.699777 511.89851V351.998976c0-88.399743-71.599792-159.999534-159.999535-159.999535s-159.999534 71.599792-159.999534 159.999535v159.999534h-63.999814c-70.699794 0-127.999628-57.299833-127.999627-127.999627V127.999628c0-70.699794 57.299833-127.999628 127.999627-127.999628h639.898138c70.699794 0 127.999628 57.299833 127.999628 127.999628v255.999255c0 70.699794-57.299833 127.999628-127.999628 127.999627H588.699777v-0.1z m-64.999811 127.999628h255.999255c70.699794 0 127.999628 57.299833 127.999627 127.999627v127.999628c0 70.699794-57.299833 127.999628-127.999627 127.999627h-319.999069c-35.399897 0-77.999773 4.899986-127.999627-52.899846l-186.999456-189.099449c-38.199889-36.499894-39.599885-96.999718-3.099991-135.199607l0.299999-0.399999c36.899893-38.199889 97.799715-39.499885 136.299603-2.699992l53.499845 51.099851V351.998976c0-52.999846 42.999875-95.999721 95.99972-95.999721s95.999721 42.999875 95.999721 95.999721v287.899162z" p-id="16392" fill="#bfbfbf"></path></svg>