<svg class="icon" viewBox="0 0 1024 1024" xmlns="http://www.w3.org/2000/svg" width="128" height="128"><defs><style/></defs><path d="M868.92 95.573H716.005c-7.168-31.289-36.068-55.41-69.86-55.41h-75.776C560.697 16.044 537.828.456 511.431.456c-26.51 0-49.38 15.701-58.937 39.709h-77.027c-33.679 0-62.578 24.12-69.86 55.41H152.69c-39.709 0-69.86 32.54-69.86 72.248V945.38c0 39.708 31.29 72.248 69.86 72.248h714.98c39.708 0 73.386-32.54 73.386-72.248V167.822c1.252-39.708-32.427-72.249-72.135-72.249zm-356.351 34.93c32.54 0 57.799 26.51 57.799 57.8 0 32.54-26.51 57.798-57.8 57.798-32.54 0-57.798-26.51-57.798-57.799s25.372-57.799 57.799-57.799zm220.274 598.244c0 14.45-12.06 26.51-26.51 26.51H318.804c-14.45 0-26.51-12.06-26.51-26.51v-24.121c0-14.45 12.06-26.51 26.51-26.51h387.527c14.45 0 26.51 12.06 26.51 26.51v24.12zm0-244.395c0 14.45-12.06 26.51-26.51 26.51H318.804c-14.45 0-26.51-12.06-26.51-26.51v-24.12c0-14.45 12.06-26.511 26.51-26.511h387.527c14.45 0 26.51 12.06 26.51 26.51v24.121z"/></svg>