<svg class="icon" width="128" height="128" viewBox="0 0 1024 1024" xmlns="http://www.w3.org/2000/svg"><path d="M904.992 692.13V543.1a27.175 27.175 0 00-26.819-27.43H538.87V399.783h210.823c32.12 0 58.02-26.563 58.02-59.397V124.719c0-32.784-25.95-59.398-58.02-59.398H274.308c-32.12 0-58.02 26.614-58.02 59.398v215.666c0 32.834 25.95 59.397 58.02 59.397h210.823v115.889H145.827a27.175 27.175 0 00-26.819 27.48v149.03H60.58c-29.368 0-53.228 24.37-53.228 54.4v157.697c0 29.979 23.86 54.4 53.228 54.4h167.485a53.84 53.84 0 0053.228-54.4V746.632c0-30.08-23.759-54.451-53.126-54.451h-55.471v-121.6H485.13v121.6h-56.848c-29.418 0-53.28 24.37-53.28 54.451v157.646c0 29.979 23.862 54.4 53.28 54.4h167.434c29.418 0 53.228-24.32 53.28-54.4V746.632c0-30.08-23.81-54.451-53.178-54.451h-56.95v-121.6h312.435v121.6h-55.318c-29.418 0-53.228 24.37-53.228 54.451v157.646c0 29.979 23.81 54.4 53.228 54.4H963.47c29.368 0 53.228-24.421 53.228-54.4V746.632c0-30.08-23.86-54.502-53.279-54.502h-58.377z"/></svg>