<svg class="icon" viewBox="0 0 1024 1024" xmlns="http://www.w3.org/2000/svg" width="128" height="128"><defs><style/></defs><path d="M967.111 328.932H56.89V215.154a56.889 56.889 0 0156.889-56.89h796.444a56.889 56.889 0 0156.89 56.89v113.778zm0 56.888v426.667a56.889 56.889 0 01-56.889 56.889H113.778a56.889 56.889 0 01-56.89-56.889V385.82h910.223zM227.556 499.598a28.444 28.444 0 000 56.89h170.666a28.444 28.444 0 100-56.89H227.556zm0 113.778a28.444 28.444 0 000 56.889h113.777a28.444 28.444 0 100-56.889H227.556z"/></svg>