<svg class="icon" viewBox="0 0 1024 1024" xmlns="http://www.w3.org/2000/svg" width="128" height="128"><defs><style/></defs><path d="M804.504 438.756h73.165c48.75 0 73.087 24.415 73.087 73.165v438.756c0 48.83-24.415 73.165-73.087 73.165h-73.165c-48.75 0-73.087-24.414-73.087-73.165V511.921c0-48.75 24.415-73.165 73.087-73.165zM475.457 548.465h73.086c48.83 0 73.166 24.414 73.166 73.165v329.047c0 48.83-24.415 73.165-73.166 73.165h-73.086c-48.83 0-73.166-24.414-73.166-73.165V621.63c0-48.83 24.415-73.165 73.166-73.165zM146.33 694.717h73.165c48.75 0 73.087 24.414 73.087 73.165v182.795c0 48.83-24.415 73.165-73.087 73.165H146.33c-48.75 0-73.087-24.414-73.087-73.165V767.882c0-48.75 24.415-73.165 73.087-73.165zm775.757-395.991a54.815 54.815 0 01-54.815-54.815V109.709H733.071a54.815 54.815 0 010-109.709h189.017c30.322 0 54.815 24.572 54.815 54.815v189.017a54.815 54.815 0 01-54.815 54.894zm-818.286 164.76a54.815 54.815 0 01-37.882-94.351L184.37 255.96a219.417 219.417 0 01297.466-9.845c42.293 35.992 104.59 35.44 146.252-1.339l203.823-171.69a54.815 54.815 0 1170.646 83.955l-203.351 170.43a222.095 222.095 0 01-288.488 1.575 111.048 111.048 0 00-150.11 5.356L141.762 448.285a54.815 54.815 0 01-38.04 15.2z"/></svg>