<svg class="icon" width="128" height="128" viewBox="0 0 1024 1024" xmlns="http://www.w3.org/2000/svg"><path d="M88 0h848c48.601 0 88 39.399 88 88v848c0 48.601-39.399 88-88 88H88c-48.601 0-88-39.399-88-88V88C0 39.399 39.399 0 88 0zm272.694 321.64a36.572 36.572 0 00-3.771-3.176c-16.291-11.94-39.177-8.412-51.117 7.88L153.36 534.347a36.571 36.571 0 00-7.074 21.619V768c0 20.198 16.373 36.571 36.571 36.571h658.286c20.198 0 36.571-16.373 36.571-36.571V654.737a36.571 36.571 0 00-12.708-27.713l-111.3-95.84c-13.01-11.204-32.063-11.848-45.8-1.548l-61.58 46.167a18.286 18.286 0 01-23.664-1.47L360.694 321.64zm457.592 16.646c32.821 0 59.428-26.607 59.428-59.429 0-32.821-26.607-59.428-59.428-59.428-32.822 0-59.429 26.607-59.429 59.428 0 32.822 26.607 59.429 59.429 59.429z"/></svg>