<svg class="icon" viewBox="0 0 1024 1024" xmlns="http://www.w3.org/2000/svg" width="128" height="128"><defs><style/></defs><path d="M260.464 881.143c1.158-1.078 2.155-2.155 3.232-3.232l.27-.324c-4.471 4.31-4.633 4.633-3.502 3.556z"/><path d="M380.805 500.701L96.545 358.975l-.89-.43a90.013 90.013 0 00-37.841-8.997c-16 0-30.597 5.495-41.155 15.38-10.585 9.964-16.403 23.7-16.403 38.81v382.273c0 15.891 6.626 33.479 18.611 49.531a123.977 123.977 0 0045.6 37.277l284.152 141.672.808.431.215.108c12.929 5.925 25.668 8.969 37.816 8.969 16.025 0 30.623-5.468 41.182-15.352 10.558-9.966 16.375-23.73 16.375-38.839V587.563c0-15.918-6.625-33.533-18.61-49.558a123.896 123.896 0 00-45.6-37.304zm600.599-135.747c-10.531-9.911-25.156-15.379-41.128-15.379-12.309 0-25.049 3.017-37.87 8.97l-285.121 142.21a123.519 123.519 0 00-45.6 37.25c-11.985 16.025-18.584 33.64-18.584 49.558V969.81c0 15.083 5.79 28.9 16.349 38.812 10.504 9.911 25.13 15.352 41.155 15.352h.135a90.525 90.525 0 0037.923-9.05l283.83-142.157a123.519 123.519 0 0045.598-37.25c11.986-16.025 18.585-33.64 18.585-49.558l1.077-382.192c0-15.11-5.79-28.873-16.349-38.812zm-100.975-97.5c25.102-12.067 39.404-31.405 39.243-53.06-.135-21.466-14.41-40.401-39.108-51.983L564.548 13.63c-17.103-7.973-39.054-12.39-61.894-12.39-24.052 0-47.242 4.821-65.315 13.52L117.984 169.954c-25.076 12.12-39.377 31.513-39.243 53.14.162 21.413 14.41 40.32 39.135 51.902l315.989 148.81c12.174 5.71 26.88 9.588 42.663 11.312l-1.185 1.104h20.389c24.052 0 47.242-4.794 65.369-13.547l319.328-155.166z"/></svg>