<svg class="icon" viewBox="0 0 1024 1024" xmlns="http://www.w3.org/2000/svg" width="128" height="128"><defs><style/></defs><path d="M336.879 900.835a50.548 50.548 0 10103.452 0 50.548 50.548 0 10-103.452 0zm433.291 0a50.549 50.549 0 10103.455 0 50.549 50.549 0 10-103.455 0zm92.928-139.044h-.116l-496.037 1.825-15.79-1.701c-5.08-2.163-27.46-14.721-35.71-70.32L251.787 213.12a31.414 31.414 0 00-.07-2.316c-3.672-51.243-25.151-80.299-42.523-95.65-19.508-17.24-38.558-21.79-42.179-22.527a30.776 30.776 0 00-5.937-.617l-63.242-.387h-.193c-16.866 0-30.591 13.621-30.695 30.51-.103 16.955 13.557 30.784 30.511 30.887l58.843.36c6.653 2.558 24.227 12.108 31.424 43.074a30.5 30.5 0 00.21 2.305l66.676 501.158.06.432c15.638 106.007 77.628 120.631 84.645 121.95.789.149 1.584.265 2.382.351l20.367 2.194a30.63 30.63 0 003.289.177h.11l497.742-1.83c16.955-.064 30.648-13.858 30.587-30.812-.062-16.918-13.794-30.588-30.696-30.588zm89.323-469.54c8.059-35.101 4.077-64.313-11.892-86.917-22.965-32.51-60.684-36.038-64.909-36.334a29.394 29.394 0 00-2.239-.075L351.83 170.59c-16.955.054-30.656 13.843-30.601 30.798.054 16.955 13.834 30.681 30.797 30.6l519.833-1.66c2.46.421 13.037 2.663 18.523 10.43 3.539 5.01 5.039 12.558 4.527 22.013a31.158 31.158 0 00-.664 3.247l-2.176 14.662c-.31 1.25-.64 2.517-.998 3.804a30.62 30.62 0 00-1.063 10.076l-37.12 250a30.947 30.947 0 00-.922 4.88c-4.959 46.84-25.685 52.697-28.93 53.328l-404.592 36.368c-16.887 1.517-29.346 16.437-27.828 33.324 1.434 15.953 14.826 27.952 30.54 27.952.92 0 1.85-.04 2.784-.125l405.007-36.405c4.904-.434 22.983-3.013 41.558-17.937 10.81-8.686 23.471-23.05 32.396-46.208a30.557 30.557 0 005.963-14.118l43.558-293.368z"/></svg>