<svg class="icon" width="128" height="128" viewBox="0 0 1024 1024" xmlns="http://www.w3.org/2000/svg"><path d="M208.924 306.186a303.06 303.06 0 10606.121 0 303.06 303.06 0 10-606.122 0zM862.93 525.263a127.66 127.66 0 00-117.514 177.444L583.383 864.74a47.854 47.854 0 1067.665 67.666l8.168-8.135 9.794 9.794a47.854 47.854 0 1067.682-67.666l-9.81-9.81 12.17-12.187a47.727 47.727 0 0067.49-67.474l6.541-6.54a127.611 127.611 0 1049.848-245.142zm0 159.514a31.903 31.903 0 1131.903-31.903 31.935 31.935 0 01-31.903 31.903zm-346.305 110.24a275.784 275.784 0 0115.616-90.939c-6.731.383-13.43.894-20.258.894a349.432 349.432 0 01-222.522-79.598 31.026 31.026 0 00-32.876-3.972C104.154 694.045 1.555 835.152 1.555 1024h636.334a276.502 276.502 0 01-121.247-228.967z"/></svg>