<svg class="icon" viewBox="0 0 1236 1024" xmlns="http://www.w3.org/2000/svg" width="154.5" height="128"><defs><style/></defs><path d="M1119.406 115.8h77.2a38.6 38.6 0 110 77.201h-77.2v77.2a38.6 38.6 0 11-77.2 0v-77.2h-77.201a38.6 38.6 0 110-77.2h77.2V38.6a38.6 38.6 0 1177.2 0v77.2zm-96.057 279.659a38.6 38.6 0 1175.386 16.617l-31.459 142.744a102.908 102.908 0 01-92.35 80.404l-567.424 45.24a38.6 38.6 0 01-6.137-76.95l567.423-45.24a25.708 25.708 0 0023.083-20.09l31.478-142.725zM342.152 194.063a38.6 38.6 0 110-77.2h495.743a38.6 38.6 0 110 77.2H342.152zm74.151 764.496a64.327 64.327 0 11-128.635.02 64.327 64.327 0 01128.635 0zm580.682 0a64.327 64.327 0 11-128.674 0 64.327 64.327 0 01128.674 0zM38.6 96.5a38.6 38.6 0 110-77.2h84.496a102.927 102.927 0 01101.654 86.734L325.4 737.457a25.746 25.746 0 0025.418 21.693h675.02a38.6 38.6 0 110 77.2h-675.02a102.947 102.947 0 01-101.654-86.715l-100.65-631.441A25.727 25.727 0 00123.096 96.5H38.6z"/></svg>