<svg class="icon" viewBox="0 0 1024 1024" xmlns="http://www.w3.org/2000/svg" width="128" height="128"><defs><style/></defs><path d="M935.02 77.19a32.645 32.645 0 0132.619 32.608V911.76a32.66 32.66 0 01-32.62 32.625H90.88c-17.987 0-32.604-14.638-32.604-32.625V109.8A32.635 32.635 0 0190.88 77.183l844.14.005m0-51.768H90.88c-46.587 0-84.372 37.79-84.372 84.372v801.961c0 46.592 37.785 84.378 84.372 84.378h844.14c46.592 0 84.372-37.79 84.372-84.378V109.798c.005-46.586-37.775-84.377-84.372-84.377z"/><path d="M199.977 573.624a25.677 25.677 0 00-25.62 25.62v202.133a25.682 25.682 0 0025.62 25.62 25.687 25.687 0 0025.63-25.62V599.245a25.687 25.687 0 00-25.63-25.62zm206.28-125.685a25.682 25.682 0 00-25.62 25.625v327.941a25.682 25.682 0 0025.62 25.626 25.687 25.687 0 0025.62-25.626v-327.94a25.677 25.677 0 00-25.62-25.626zm214.17 125.685a25.687 25.687 0 00-25.621 25.62v202.133a25.692 25.692 0 0025.62 25.62 25.682 25.682 0 0025.626-25.62V599.245a25.677 25.677 0 00-25.626-25.62zm208.09-125.684a25.682 25.682 0 00-25.625 25.625v327.813a25.682 25.682 0 0025.625 25.626 25.672 25.672 0 0025.62-25.626V473.692c.144-14.239-11.504-25.753-25.62-25.753z"/><path d="M845.599 209.178l-123.843-26.266a21.023 21.023 0 00-24.98 16.302c-2.468 11.387 4.92 22.646 16.317 24.975l65.854 13.973-186.47 147.144-156.59-131.093c-9.053-9.318-23.937-10.48-34.295-2.335L164.26 439.148a25.682 25.682 0 00-4.265 35.968c8.796 11.13 24.97 12.943 35.968 4.275L416.87 305.198l154.64 129.546a26.132 26.132 0 0017.73 5.955 25.441 25.441 0 0021.868-4.787l197.995-156.196-14.75 69.622a21.033 21.033 0 0016.312 24.98 21.028 21.028 0 0024.97-16.307l26.276-123.848c2.453-11.264-4.915-22.523-16.312-24.985z"/></svg>