<svg class="icon" viewBox="0 0 1024 1024" xmlns="http://www.w3.org/2000/svg" width="128" height="128"><defs><style/></defs><path d="M46.495 395.728c-25.678 0-46.472 20.654-46.472 46.518V581.8c0 25.678 20.608 46.518 46.472 46.518h136.297a339.975 339.975 0 0014.235 34.237l-96.432 96.386c-18.142 18.142-18.281 47.448.047 65.73l98.71 98.71c18.143 18.19 47.45 18.282 65.73.047L361.7 826.81a345.813 345.813 0 0034.005 14.049v136.623c0 25.678 20.654 46.471 46.518 46.471h139.554c25.678 0 46.518-20.607 46.518-46.471v-136.81a343.351 343.351 0 0033.865-14.048l96.757 96.758c18.142 18.142 47.449 18.281 65.73-.047l98.711-98.711c18.189-18.142 18.282-47.495.047-65.73l-96.757-96.757a343.351 343.351 0 0014.048-33.865h136.81c25.677 0 46.47-20.654 46.47-46.518V442.2c0-25.678-20.607-46.518-46.47-46.518H840.881a345.813 345.813 0 00-14.048-34.005l96.57-96.618c18.143-18.142 18.282-47.448-.046-65.73l-98.71-98.71c-18.19-18.19-47.496-18.282-65.73-.047l-96.386 96.432c-11.071-5.303-22.515-10.095-34.237-14.235V46.471C628.295 20.794 607.64 0 581.777 0H442.223c-25.678 0-46.518 20.607-46.518 46.471v136.112c-11.769 4.14-23.259 8.885-34.377 14.235l-96.245-96.2c-18.142-18.142-47.449-18.281-65.73.047l-98.711 98.664c-18.142 18.142-18.282 47.449-.047 65.73l96.246 96.246a342.376 342.376 0 00-14.235 34.377H46.495zM511.72 279.154c128.436 0 232.59 104.154 232.59 232.59s-104.154 232.59-232.59 232.59-232.59-104.154-232.59-232.59 104.154-232.59 232.59-232.59z"/></svg>