<?xml version="1.0" standalone="no"?><!DOCTYPE svg PUBLIC "-//W3C//DTD SVG 1.1//EN" "http://www.w3.org/Graphics/SVG/1.1/DTD/svg11.dtd"><svg t="1625738011802" class="icon" viewBox="0 0 1024 1024" version="1.1" xmlns="http://www.w3.org/2000/svg" p-id="17055" xmlns:xlink="http://www.w3.org/1999/xlink" width="128" height="128"><defs><style type="text/css"></style></defs><path d="M754.614526 202.055203a95.810457 95.810457 0 0 1 13.424203-40.42603 96.577555 96.577555 0 0 1 40.42603-13.424203 96.577555 96.577555 0 0 1 40.42603 13.424203c13.500913 6.750457 13.500913 27.001826 13.500913 40.42603a95.657038 95.657038 0 0 1-13.500913 40.42603 95.657038 95.657038 0 0 1-40.42603 13.500913 95.657038 95.657038 0 0 1-40.42603-13.500913 95.503619 95.503619 0 0 1-13.424203-40.42603zM606.334611 107.77894A72.720828 72.720828 0 0 1 626.58598 60.602454a65.126564 65.126564 0 0 1 94.276263 0 61.367787 61.367787 0 0 1 20.25137 47.176486 61.367787 61.367787 0 0 1-20.25137 47.176486 65.126564 65.126564 0 0 1-94.276263 0 61.367787 61.367787 0 0 1-20.251369-47.176486zM411.031629 80.777114a76.709734 76.709734 0 0 1 20.17466-53.696814 81.849286 81.849286 0 0 1 107.777175 0 76.709734 76.709734 0 0 1 20.25137 53.696814 76.709734 76.709734 0 0 1-20.25137 53.696814 81.849286 81.849286 0 0 1-107.777175 0 76.709734 76.709734 0 0 1-20.17466-53.696814zM161.724994 94.278027c0-26.925117 13.500913-47.099777 26.925116-67.351146A96.424135 96.424135 0 0 1 256.077966 0.001764a102.791043 102.791043 0 0 1 67.351147 26.925117 86.681999 86.681999 0 0 1 26.925116 67.351146c0 26.925117-13.424203 47.176486-26.925116 67.351146a96.347426 96.347426 0 0 1-67.351147 27.001827 102.944463 102.944463 0 0 1-67.427856-27.001827A86.52858 86.52858 0 0 1 161.724994 94.278027zM619.835524 215.556116H357.104686c-87.602516 6.750457-154.953662 73.948183-154.953662 161.704119 0 60.60069 33.675573 107.393627 80.852059 141.452749 0 0 94.276263 47.176486 0 282.905498a196.607048 196.607048 0 0 0-13.500913 60.677399c0 87.525806 74.101603 161.627409 168.761414 161.627409 40.42603 0 80.852059-13.424203 107.393627-40.426029 168.761414-134.702292 276.155041-336.832441 276.155042-565.810996v-6.750457c0.153419-101.103429-87.295677-195.379692-201.976729-195.379692z" p-id="17056"></path></svg>