<svg class="icon" viewBox="0 0 1024 1024" xmlns="http://www.w3.org/2000/svg" width="128" height="128"><defs><style/></defs><path d="M62.578 881.778l-56.89-409.6H102.4l28.444 312.889h5.69l153.6-312.89h91.022l-210.49 409.6H62.579zm483.555-96.711h-147.91l-51.2 96.71h-85.334l227.555-409.6h102.4l56.89 409.6H557.51l-11.378-96.71zM432.356 716.8h108.088l-17.066-159.289h-5.69L432.357 716.8zm295.822 164.978l68.266-335.645H671.29l17.067-73.955H1024l-17.067 73.955H881.778L813.51 881.778h-85.333zm295.822-512H0v-85.334h802.133L711.111 204.8 768 142.222z"/></svg>